<?xml version="1.0" encoding="iso-8859-1"?>
<!-- Generator: Adobe Illustrator 19.0.0, SVG Export Plug-In . SVG Version: 6.00 Build 0)  -->
<svg version="1.1" id="Layer_1" xmlns="http://www.w3.org/2000/svg" xmlns:xlink="http://www.w3.org/1999/xlink" x="0px" y="0px"
	 viewBox="0 0 512 512" style="enable-background:new 0 0 512 512;" xml:space="preserve">
<path style="fill:#F2F2F2;" d="M256,0C114.616,0,0,114.616,0,256s114.616,256,256,256s256-114.616,256-256S397.384,0,256,0z"/>
<path d="M371.792,205.192h-5.448c-5.424-22.92-25.968-40.096-50.552-40.096c-5.968,0-12.016,1.32-17.024,3
	c-12.024-34.28-44.584-58.912-82.976-58.912c-48.6,0-88,39.4-88,88c0,3.056,0.16,6.08,0.464,9.064
	c-31.944,5.528-56.464,33.48-56.464,66.936c0,37.4,30.6,68,68,68h232c37.4,0,68-30.6,68-68
	C439.792,235.792,409.192,205.192,371.792,205.192z"/>
<path style="fill:#E21B1B;" d="M305.56,240.416L193.632,263.04v107.04c-6.008-4.096-13.752-6.568-22.288-6.568
	c-18.92,0-34.24,12.184-34.24,27.224s15.32,27.224,34.24,27.224s34.24-12.184,34.24-27.224v-82.904l86.944-13.696v62.752
	c-5.84-3.648-13.192-5.896-21.216-5.896c-18.92,0-34.24,12.184-34.24,27.224s15.32,27.224,34.24,27.224s34.24-12.184,34.24-27.224
	c0-1.008-0.112-2.08-0.224-3.032h0.224V240.416H305.56z"/>
<g>
</g>
<g>
</g>
<g>
</g>
<g>
</g>
<g>
</g>
<g>
</g>
<g>
</g>
<g>
</g>
<g>
</g>
<g>
</g>
<g>
</g>
<g>
</g>
<g>
</g>
<g>
</g>
<g>
</g>
</svg>
